<?xml version="1.0" encoding="utf-8"?>
<!-- Generator: Adobe Illustrator 21.1.0, SVG Export Plug-In . SVG Version: 6.00 Build 0)  -->
<svg version="1.1" id="Capa_1" xmlns="http://www.w3.org/2000/svg" xmlns:xlink="http://www.w3.org/1999/xlink" x="0px" y="0px"
	 viewBox="0 0 24 24" style="enable-background:new 0 0 24 24;" xml:space="preserve">
<style type="text/css">
	.st0{fill:#D1CBFC;}
	.st1{fill:none;}
	.st2{fill:#6C687C;}
</style>
<path class="st0" d="M12,2C8.1,2,5,5.1,5,9c0,5.2,7,13,7,13s7-7.7,7-13C19,5.1,15.9,2,12,2z M12,11.5c-1.4,0-2.5-1.1-2.5-2.5
	s1.1-2.5,2.5-2.5s2.5,1.1,2.5,2.5S13.4,11.5,12,11.5z"/>
<path class="st1" d="M0,0h24v24H0V0z"/>
<rect x="8.5" y="5" class="st0" width="7.1" height="8.4"/>
<g>
	<path class="st2" d="M10.6,12l-0.8,2.5H8.7l2.7-8.1h1.3l2.8,8.1h-1.1L13.5,12H10.6z M13.3,11.2l-0.8-2.3c-0.2-0.5-0.3-1-0.4-1.5h0
		c-0.1,0.5-0.3,1-0.4,1.5l-0.8,2.3H13.3z"/>
</g>
</svg>
